<svg xmlns="http://www.w3.org/2000/svg" width="512" height="512" viewBox="0 0 512 512">
  <defs>
    <linearGradient id="bg1" x1="0" y1="0" x2="1" y2="1">
      <stop offset="0" stop-color="#071426"></stop>
      <stop offset="1" stop-color="#0B2545"></stop>
    </linearGradient>
    <filter id="s" x="-20%" y="-20%" width="140%" height="140%">
      <feDropShadow dx="0" dy="6" stdDeviation="10" flood-color="#000" flood-opacity="0.6"></feDropShadow>
    </filter>
  </defs>
  <rect width="512" height="512" rx="92" fill="url(#bg1)"></rect>
  <!-- lock body -->
  <g transform="translate(128,108)" filter="url(#s)">
    <rect x="56" y="136" width="192" height="152" rx="20" fill="#0F1724"></rect>
    <!-- shackle -->
    <path d="M152 136v-36a48 48 0 1 1 96 0v36" fill="none" stroke="#B9C7CF" stroke-width="20" stroke-linecap="round"></path>
    <!-- shield overlay -->
    <path d="M152 40c-30 0-72 18-72 52 0 64 56 96 72 100 16-4 72-36 72-100 0-34-42-52-72-52z" fill="#0E9AA8" transform="translate(0,40)"></path>
    <!-- check -->
    <path d="M190 156l-34 34-18-18" fill="none" stroke="#fff" stroke-width="18" stroke-linecap="round" stroke-linejoin="round" transform="translate(-8,-8)"></path>
  </g>
</svg>
